<svg version="1.2" xmlns="http://www.w3.org/2000/svg" viewBox="0 0 512 512" width="512" height="512"><style>.a{fill:#a39e9e}</style><path fill-rule="evenodd" class="a" d="m504.9 476.7l-28.3 28.3c-9.3 9.4-24.5 9.4-33.9 0l-99.7-99.7c-4.5-4.5-7-10.6-7-17v-16.3c-35.3 27.6-79.7 44-128 44-114.9 0-208-93.1-208-208 0-114.9 93.1-208 208-208 114.9 0 208 93.1 208 208 0 48.3-16.4 92.7-44 128h16.3c6.4 0 12.5 2.5 17 7l99.7 99.7c9.3 9.4 9.3 24.6-0.1 34zm-168.9-268.7c0-70.8-57.3-128-128-128-70.8 0-128 57.3-128 128 0 70.8 57.3 128 128 128 70.8 0 128-57.3 128-128z"/></svg>